<svg xmlns="http://www.w3.org/2000/svg" width="147" height="147" viewBox="0 0 147 147"><title>Hubblesite-WhiteIcons-Galaxies-Final</title><circle cx="73.5" cy="73.5" r="56.17" fill="none" stroke="#fff" stroke-miterlimit="10"/><circle cx="73.5" cy="73.5" r="55.17" fill="none" stroke="#fff" stroke-miterlimit="10"/><path d="M73.5,147A73.5,73.5,0,1,1,147,73.5,73.58,73.58,0,0,1,73.5,147Zm0-145A71.51,71.51,0,1,0,145,73.5,71.59,71.59,0,0,0,73.5,2Z" fill="#fff"/><path d="M53.46,47a26.77,26.77,0,0,1,8.5-.67C77.25,47.68,84.44,57,85.66,63.22c.92,4.5.67,7.77-.86,10.87a11,11,0,0,1-9.11,6.12l-.51,0A11.06,11.06,0,0,1,70,79.1,8.69,8.69,0,0,1,66,67.46a6.79,6.79,0,0,1,9.12-3.09,5.29,5.29,0,0,1,2.4,7.09.75.75,0,0,0,.34,1,.73.73,0,0,0,1-.34A6.79,6.79,0,0,0,75.82,63a8.31,8.31,0,0,0-11.13,3.77,10.21,10.21,0,0,0,4.63,13.66,12.49,12.49,0,0,0,5.55,1.3c.38,0,.76,0,1.14,0,5.1-.27,11.64-3.62,15.37-10.79a.75.75,0,1,0-1.33-.69,19.89,19.89,0,0,1-4.81,6,11.47,11.47,0,0,0,.9-1.52c2.18-4.41,1.65-8.79.94-12.1l0-.06c-1.5-6.64-9.12-16.36-25-17.73a28.32,28.32,0,0,0-9,.7.75.75,0,0,0-.55.91A.74.74,0,0,0,53.46,47Z" fill="#fff"/><path d="M45,50.5a.75.75,0,0,0-.77-1.29A37.5,37.5,0,0,0,30.62,63.64a.76.76,0,0,0,.3,1,.8.8,0,0,0,.36.09.74.74,0,0,0,.66-.39A35.93,35.93,0,0,1,45,50.5Z" fill="#fff"/><path d="M27.28,74.14a.75.75,0,0,0-.91.54c-.15.6-.29,1.21-.43,1.82a.76.76,0,0,0,.58.9h.16a.76.76,0,0,0,.73-.59c.13-.6.27-1.19.41-1.77A.74.74,0,0,0,27.28,74.14Z" fill="#fff"/><path d="M93.4,60.63h0a.76.76,0,0,0,.75-.75c0-.52,0-1.05-.07-1.57a.75.75,0,0,0-1.5.11c0,.49.06,1,.07,1.47A.74.74,0,0,0,93.4,60.63Z" fill="#fff"/><path d="M89.61,48.81a.72.72,0,0,0,.65.38.81.81,0,0,0,.37-.09.75.75,0,0,0,.28-1,28,28,0,0,0-4.56-6,.75.75,0,1,0-1.06,1.06A26.53,26.53,0,0,1,89.61,48.81Z" fill="#fff"/><path d="M73.28,35.61a39.18,39.18,0,0,1,3.78,1.65.8.8,0,0,0,.33.08.74.74,0,0,0,.67-.41.75.75,0,0,0-.33-1,38.62,38.62,0,0,0-3.92-1.71.75.75,0,0,0-1,.44A.74.74,0,0,0,73.28,35.61Z" fill="#fff"/><path d="M64.73,62a.75.75,0,1,0-.68-1.34l-.45.24a17.91,17.91,0,0,0-9.17,15.33.75.75,0,0,0,.73.76h0a.75.75,0,0,0,.75-.74,16.41,16.41,0,0,1,8.4-14Z" fill="#fff"/><path d="M77.23,95a.76.76,0,0,0-.16,0,20.35,20.35,0,0,1-5.87-.54,20.64,20.64,0,0,1-11.69-7.68.75.75,0,1,0-1.2.9A22.21,22.21,0,0,0,76,96.53l1,0a.5.5,0,0,0,.13,0h0A32.82,32.82,0,0,0,91.69,92.7a40.91,40.91,0,0,0,17.85-18.52.75.75,0,0,0-.35-1,.73.73,0,0,0-1,.35A39.43,39.43,0,0,1,91,91.37,31.34,31.34,0,0,1,77.23,95Z" fill="#fff"/><path d="M112.53,61.6a.75.75,0,0,0-.85.63c-.17,1.13-.4,2.27-.67,3.39a.76.76,0,0,0,.55.91l.18,0a.75.75,0,0,0,.73-.57c.28-1.17.51-2.35.69-3.53A.75.75,0,0,0,112.53,61.6Z" fill="#fff"/><path d="M110.16,41.69a.75.75,0,0,0-.45,1,39.62,39.62,0,0,1,2.22,9.6.75.75,0,0,0,.74.67h.08a.77.77,0,0,0,.67-.83,41.1,41.1,0,0,0-2.3-10A.75.75,0,0,0,110.16,41.69Z" fill="#fff"/><path d="M66.43,85.65a.76.76,0,0,0,.43.14.72.72,0,0,0,.61-.32.74.74,0,0,0-.17-1A16.37,16.37,0,0,1,64.61,82a.75.75,0,1,0-1.13,1A18.2,18.2,0,0,0,66.43,85.65Z" fill="#fff"/><path d="M76.3,87.67a.76.76,0,0,0-.82.68.74.74,0,0,0,.67.82c.72.07,1.43.1,2.15.1A22,22,0,0,0,98.58,75.7a.75.75,0,1,0-1.38-.57A20.52,20.52,0,0,1,76.3,87.67Z" fill="#fff"/><path d="M61.48,104.24A33.32,33.32,0,0,1,53.6,99a.76.76,0,0,0-.18-.23c-.36-.3-.7-.61-1.05-.92s-.9-.91-1.33-1.39a.67.67,0,0,0-.19-.14,29.22,29.22,0,0,1-4.63-6.65A23.26,23.26,0,0,1,56.4,58.42a19,19,0,0,1,14.69-.74c4.38,1.51,7.81,4.34,9.41,7.77h0a7.16,7.16,0,0,1-3.12,9.47,8.3,8.3,0,0,1-5,.92,4.16,4.16,0,0,1-3-2.2,3.13,3.13,0,0,1-.21-2.28,4.6,4.6,0,0,0,3.21,1.14c2.11,0,3.82-1.1,3.82-2.45s-1.71-2.45-3.82-2.45a5.52,5.52,0,0,0-.71,0,3.71,3.71,0,0,0-1.58.41,3.89,3.89,0,0,0-.4.25l0,0a4.65,4.65,0,0,0-1.63,6,5.72,5.72,0,0,0,4,3,8.68,8.68,0,0,0,1.43.12,9.68,9.68,0,0,0,4.68-1.2,8.63,8.63,0,0,0,3.71-11.43h0c-1.78-3.78-5.53-6.89-10.28-8.52a20.49,20.49,0,0,0-15.85.82A24.77,24.77,0,0,0,44.88,90.34a30.48,30.48,0,0,0,6.48,8.6,34.43,34.43,0,0,0,9.48,6.65.71.71,0,0,0,.32.07.72.72,0,0,0,.67-.42A.75.75,0,0,0,61.48,104.24Z" fill="#fff"/><path d="M109.55,95a41.79,41.79,0,0,1-37.94,12.48.76.76,0,0,0-.87.61.75.75,0,0,0,.6.87,43.73,43.73,0,0,0,7.79.7A43.26,43.26,0,0,0,110.64,96a.75.75,0,0,0-1.09-1Z" fill="#fff"/><path d="M119,81.35a.75.75,0,0,0-1,.42,42.11,42.11,0,0,1-2.9,5.87.74.74,0,0,0,.27,1,.67.67,0,0,0,.38.11.74.74,0,0,0,.64-.37,43.33,43.33,0,0,0,3-6.07A.76.76,0,0,0,119,81.35Z" fill="#fff"/><path d="M46.63,56.08a.75.75,0,0,0,.17-1,.76.76,0,0,0-1-.17,26.78,26.78,0,0,0-8,9.24,33.24,33.24,0,0,0-2.25,26,.74.74,0,0,0,.71.52.91.91,0,0,0,.23,0,.75.75,0,0,0,.48-1A31.82,31.82,0,0,1,39.08,64.8,25.19,25.19,0,0,1,46.63,56.08Z" fill="#fff"/><path d="M41.89,99.82a.76.76,0,0,0-1-.19.74.74,0,0,0-.19,1A33.1,33.1,0,0,0,43.24,104a.75.75,0,0,0,.56.25.73.73,0,0,0,.5-.19.75.75,0,0,0,.06-1.06A31.54,31.54,0,0,1,41.89,99.82Z" fill="#fff"/><path d="M32.05,69.1a3.59,3.59,0,1,1-3.59-3.58A3.61,3.61,0,0,1,32.05,69.1Zm-5.38,0a1.79,1.79,0,1,0,1.79-1.79,1.8,1.8,0,0,0-1.79,1.79Z" fill="#fff"/><circle cx="28.08" cy="55.73" r="1.19" fill="#fff"/><path d="M40,94.11H39v-1a1,1,0,0,0-2.09,0h0v1h-1a1,1,0,0,0,0,2.09h1v1a1,1,0,0,0,1,1h0a1,1,0,0,0,1-1h0v-1h1a1,1,0,0,0,1.05-1h0a1,1,0,0,0-1.05-1Z" fill="#fff"/><circle cx="58.36" cy="95.15" r="1.19" fill="#fff"/><path d="M115,90.8h-1v-1a1,1,0,1,0-2.08,0h0v1h-1a1,1,0,0,0,0,2.09h1v1a1,1,0,0,0,1,1h0a1,1,0,0,0,1-1h0v-1h1a1,1,0,0,0,1-1h0a1,1,0,0,0-1-1Z" fill="#fff"/><circle cx="87.06" cy="100" r="1.19" fill="#fff"/><circle cx="110.95" cy="70.13" r="1.19" fill="#fff"/><path d="M69.26,105.06h-1v-1a1,1,0,0,0-2.09,0h0v1h-1a1,1,0,0,0,0,2.09h1v1a1,1,0,0,0,1.05,1h0a1,1,0,0,0,1-1h0v-1h1a1,1,0,0,0,1-1h0a1,1,0,0,0-1-1Z" fill="#fff"/><circle cx="110.85" cy="83.12" r="1.19" fill="#fff"/><circle cx="121.08" cy="77.88" r="1.19" fill="#fff"/><path d="M73.1,86.44h-1v-1a1,1,0,1,0-2.08,0h0v1h-1a1,1,0,0,0,0,2.09h1v1a1,1,0,0,0,1,1h0a1,1,0,0,0,1-1h0v-1h1a1,1,0,0,0,1.05-1h0a1,1,0,0,0-1.05-1Z" fill="#fff"/><path d="M115.17,56.93a2.29,2.29,0,1,1-2.29-2.29A2.29,2.29,0,0,1,115.17,56.93Zm-3.43,0a1.14,1.14,0,1,0,1.14-1.14,1.14,1.14,0,0,0-1.14,1.14Z" fill="#fff"/><circle cx="118.79" cy="68.08" r="1.19" fill="#fff"/><circle cx="92.65" cy="53.44" r="2.39" fill="#fff"/><path d="M50.86,46.43h-1v-1a1,1,0,1,0-2.08,0h0v1H46.69a1,1,0,0,0,0,2.08h1.05v1.05a1,1,0,0,0,1,1h0a1,1,0,0,0,1-1h0V48.51h1a1,1,0,0,0,1-1h0a1,1,0,0,0-1-1Z" fill="#fff"/><circle cx="56.25" cy="51.49" r="2.39" fill="#fff"/><path d="M94.73,64.58h-1v-1a1,1,0,1,0-2.09,0h0v1h-1a1,1,0,0,0,0,2.08h1v1a1,1,0,0,0,1.05,1h0a1,1,0,0,0,1-1h0v-1h1a1,1,0,0,0,1-1h0a1,1,0,0,0-1-1Z" fill="#fff"/><circle cx="82.01" cy="39.17" r="2.39" fill="#fff"/><path d="M60.15,82.05a3.58,3.58,0,1,1-3.58-3.58A3.58,3.58,0,0,1,60.15,82.05Zm-5.37,0a1.79,1.79,0,1,0,1.79-1.79,1.79,1.79,0,0,0-1.79,1.79Z" fill="#fff"/><circle cx="102.16" cy="57.61" r="1.19" fill="#fff"/><circle cx="71.02" cy="41.42" r="1.19" fill="#fff"/><circle cx="48.78" cy="76.69" r="1.19" fill="#fff"/><circle cx="25.92" cy="81.3" r="1.19" fill="#fff"/><circle cx="99.78" cy="70.13" r="1.19" fill="#fff"/><circle cx="77.15" cy="114.66" r="1.19" fill="#fff"/><circle cx="91.01" cy="36.78" r="1.19" fill="#fff"/><circle cx="68.31" cy="32.84" r="1.19" fill="#fff"/><circle cx="47.53" cy="106.11" r="1.19" fill="#fff"/><path d="M69.26,105.06h-1v-1a1,1,0,0,0-2.09,0h0v1h-1a1,1,0,0,0,0,2.09h1v1a1,1,0,0,0,1.05,1h0a1,1,0,0,0,1-1h0v-1h1a1,1,0,0,0,1-1h0a1,1,0,0,0-1-1Z" fill="#fff"/><path d="M73.1,86.44h-1v-1a1,1,0,1,0-2.08,0h0v1h-1a1,1,0,0,0,0,2.09h1v1a1,1,0,0,0,1,1h0a1,1,0,0,0,1-1h0v-1h1a1,1,0,0,0,1.05-1h0a1,1,0,0,0-1.05-1Z" fill="#fff"/><circle cx="46.94" cy="38.73" r="1.19" fill="#fff"/><path d="M60.15,82.05a3.58,3.58,0,1,1-3.58-3.58A3.58,3.58,0,0,1,60.15,82.05Zm-5.37,0a1.79,1.79,0,1,0,1.79-1.79,1.79,1.79,0,0,0-1.79,1.79Z" fill="#fff"/><circle cx="99.78" cy="70.13" r="1.19" fill="#fff"/><circle cx="104.55" cy="106.39" r="1.19" fill="#fff"/></svg>